<svg class="diagram-root" style="background: #f5f6f6" xmlns="http://www.w3.org/2000/svg" xmlns:xlink="http://www.w3.org/1999/xlink"><style>.diagram-root { font-family: "Helvetica Neue", sans-serif; font-size: 12px; } .t { overflow: visible; } .t-bg { y: 40; fill: #fff;   } .th { fill: #005aa0;   } .tht { fill: #fff; font-size: 14px;  } .tf { fill: #323c46; overflow: visible; } .tf.pk { fill: #005aa0; font-weight: bold; } .tf.fk { font-weight: bold; } .ty { fill: #adb1b5; font-weight: normal; text-anchor: end; } .r { fill: transparent; stroke: #c3c3c3; stroke-width: 1; } .l { stroke: 1; } .i { fill: #c2c7ce; stroke: #c2c7ce; } .i.ix { fill: #afb3b6; stroke: #000; } .fa { fill: transparent; overflow: visible; } .fa .bg.hover { fill: #f7f7f7; } .c { cy: 12; r: 4; stroke: #d2d2dc; fill: #d2d2dc; } .hr { fill: transparent; stroke: #323c46; stroke-opacity: 0.035; stroke-width: 13; } .dc { stroke: #fa5a3c; fill: #fa5a3c; } .x { stroke: white; stroke-width: 1; } .hl .th { fill: #1b9bff; } .hl .tht {  } .fhl .bg { fill: #e7f4ff; } .fhls .bg {  } .r.hl { stroke: #1b9bff; } .dim { opacity: 0.25; }</style><g class="drawing-wrapper" transform="translate(-103.55111111111111, -65.55222222222226) scale(1,1)"><g class="rs"><path d="M 438.38 227.55 m -1, 0 a 1,1 0 1,0 2,0 a 1,1 0 1,0 -2,0 M 438.38 227.55 m -0.5, 0 a 0.5,0.5 0 1,0 1,0 a 0.5,0.5 0 1,0 -1,0  M438.38 227.55 L438.38 227.55 450.38 227.55 M 438.38 233.55 m -1, 0 a 1,1 0 1,0 2,0 a 1,1 0 1,0 -2,0 M 438.38 233.55 m -0.5, 0 a 0.5,0.5 0 1,0 1,0 a 0.5,0.5 0 1,0 -1,0  M438.38 233.55 L438.38 233.55 445.38 227.55 438.38 221.55 M 438.38 221.55 m -1, 0 a 1,1 0 1,0 2,0 a 1,1 0 1,0 -2,0 M 438.38 221.55 m -0.5, 0 a 0.5,0.5 0 1,0 1,0 a 0.5,0.5 0 1,0 -1,0  M450.38 227.55 Q 488.67 227.55, 526.96 336.72 T 603.55 445.88 M 615.55 445.88 m -1, 0 a 1,1 0 1,0 2,0 a 1,1 0 1,0 -2,0 M 615.55 445.88 m -0.5, 0 a 0.5,0.5 0 1,0 1,0 a 0.5,0.5 0 1,0 -1,0  M615.55 445.88 L615.55 445.88 603.55 445.88 M609.55 451.88 L609.55 451.88 609.55 439.88" id="h1671975329" class="r"></path><path d="M 360.74 580.89 m -1, 0 a 1,1 0 1,0 2,0 a 1,1 0 1,0 -2,0 M 360.74 580.89 m -0.5, 0 a 0.5,0.5 0 1,0 1,0 a 0.5,0.5 0 1,0 -1,0  M360.74 580.89 L360.74 580.89 372.74 580.89 M 360.74 586.89 m -1, 0 a 1,1 0 1,0 2,0 a 1,1 0 1,0 -2,0 M 360.74 586.89 m -0.5, 0 a 0.5,0.5 0 1,0 1,0 a 0.5,0.5 0 1,0 -1,0  M360.74 586.89 L360.74 586.89 367.74 580.89 360.74 574.89 M 360.74 574.89 m -1, 0 a 1,1 0 1,0 2,0 a 1,1 0 1,0 -2,0 M 360.74 574.89 m -0.5, 0 a 0.5,0.5 0 1,0 1,0 a 0.5,0.5 0 1,0 -1,0  M372.74 580.89 C 546.9639999999999 580.89, 500.38 177.55, 450.38 177.55 M 438.38 177.55 m -1, 0 a 1,1 0 1,0 2,0 a 1,1 0 1,0 -2,0 M 438.38 177.55 m -0.5, 0 a 0.5,0.5 0 1,0 1,0 a 0.5,0.5 0 1,0 -1,0  M438.38 177.55 L438.38 177.55 450.38 177.55 M444.38 183.55 L444.38 183.55 444.38 171.55" id="h1619812755" class="r"></path><path d="M 360.74 630.89 m -1, 0 a 1,1 0 1,0 2,0 a 1,1 0 1,0 -2,0 M 360.74 630.89 m -0.5, 0 a 0.5,0.5 0 1,0 1,0 a 0.5,0.5 0 1,0 -1,0  M360.74 630.89 L360.74 630.89 372.74 630.89 M 360.74 636.89 m -1, 0 a 1,1 0 1,0 2,0 a 1,1 0 1,0 -2,0 M 360.74 636.89 m -0.5, 0 a 0.5,0.5 0 1,0 1,0 a 0.5,0.5 0 1,0 -1,0  M360.74 636.89 L360.74 636.89 367.74 630.89 360.74 624.89 M 360.74 624.89 m -1, 0 a 1,1 0 1,0 2,0 a 1,1 0 1,0 -2,0 M 360.74 624.89 m -0.5, 0 a 0.5,0.5 0 1,0 1,0 a 0.5,0.5 0 1,0 -1,0  M372.74 630.89 Q 430.45 630.89, 488.15 538.39 T 603.55 445.88 M 615.55 445.88 m -1, 0 a 1,1 0 1,0 2,0 a 1,1 0 1,0 -2,0 M 615.55 445.88 m -0.5, 0 a 0.5,0.5 0 1,0 1,0 a 0.5,0.5 0 1,0 -1,0  M615.55 445.88 L615.55 445.88 603.55 445.88 M609.55 451.88 L609.55 451.88 609.55 439.88" id="h3129167271" class="r"></path></g><g class="hrs"></g><g class="ts"><svg width="194.49" height="150" x="243.89" y="95.55" id="h1765850068" class="t"><rect height="40" width="194.49" class="th"></rect><text x="13" y="25" class="tht">USERS</text><rect height="110" width="194.49" class="t-bg"></rect><text x="13" y="61" class="tf pk">user_id<tspan x="181.49" class="ty">SERIAL</tspan></text><path d="M7,14A2,2 0 0,1 5,12A2,2 0 0,1 7,10A2,2 0 0,1 9,12A2,2 0 0,1 7,14M12.65,10C11.83,7.67 9.61,6 7, 6A6, 6 0 0, 0 1, 12A6, 6 0 0, 0 7, 18C9.61, 18 11.83, 16.33 12.65, 14H17V18H21V14H23V10H12.65Z" class="i pk" transform="translate(118.80445312500001, 48) scale(0.65)"></path><text x="13" y="86" class="tf fk">username<tspan x="181.49" class="ty">VARCHAR(25)</tspan></text><path d="M22,18V22H18V19H15V16H12L9.74,13.74C9.19,13.91 8.61,14 8,14A6,6 0 0,1 2,8A6,6 0 0,1 8,2A6,6 0 0,1 14,8C14,8.61 13.91, 9.19 13.74, 9.74L22, 18M7, 5A2, 2 0 0, 0 5, 7A2, 2 0 0, 0 7, 9A2, 2 0 0, 0 9, 7A2, 2 0 0, 0 7, 5Z" class="i uq" transform="translate(86.35914062500001, 75.5) scale(0.5)"></path><text x="13" y="111" class="tf">password<tspan x="181.49" class="ty">TEXT</tspan></text><text x="13" y="136" class="tf fk">preferred_region</text></svg><svg width="235.19" height="225" x="125.55" y="448.89" id="h2461946525" class="t"><rect height="40" width="235.19" class="th"></rect><text x="13" y="25" class="tht">POSTS</text><rect height="185" width="235.19" class="t-bg"></rect><text x="13" y="61" class="tf pk">post_id<tspan x="222.19" class="ty">SERIAL</tspan></text><path d="M7,14A2,2 0 0,1 5,12A2,2 0 0,1 7,10A2,2 0 0,1 9,12A2,2 0 0,1 7,14M12.65,10C11.83,7.67 9.61,6 7, 6A6, 6 0 0, 0 1, 12A6, 6 0 0, 0 7, 18C9.61, 18 11.83, 16.33 12.65, 14H17V18H21V14H23V10H12.65Z" class="i pk" transform="translate(159.504453125, 48) scale(0.65)"></path><text x="13" y="86" class="tf">title<tspan x="222.19" class="ty">TEXT</tspan></text><text x="13" y="111" class="tf">text<tspan x="222.19" class="ty">TEXT</tspan></text><text x="13" y="136" class="tf fk">username</text><text x="13" y="161" class="tf">location<tspan x="222.19" class="ty">MAP</tspan></text><text x="13" y="186" class="tf fk">region</text><text x="13" y="211" class="tf fk">category<tspan x="222.19" class="ty">CATEGORIES.category_id</tspan></text></svg><svg width="158.06" height="100" x="615.55" y="388.88" id="h2621069812" class="t"><rect height="40" width="158.06" class="th"></rect><text x="13" y="25" class="tht">REGIONS</text><rect height="60" width="158.06" class="t-bg"></rect><text x="13" y="61" class="tf pk">region_id<tspan x="145.06" class="ty">SERIAL</tspan></text><path d="M7,14A2,2 0 0,1 5,12A2,2 0 0,1 7,10A2,2 0 0,1 9,12A2,2 0 0,1 7,14M12.65,10C11.83,7.67 9.61,6 7, 6A6, 6 0 0, 0 1, 12A6, 6 0 0, 0 7, 18C9.61, 18 11.83, 16.33 12.65, 14H17V18H21V14H23V10H12.65Z" class="i pk" transform="translate(82.374453125, 48) scale(0.65)"></path><text x="13" y="86" class="tf">region_name<tspan x="145.06" class="ty">TEXT</tspan></text></svg><svg width="170.72" height="125" x="883.88" y="96.67" id="h353026235" class="t"><rect height="40" width="170.72" class="th"></rect><text x="13" y="25" class="tht">CATEGORIES</text><rect height="85" width="170.72" class="t-bg"></rect><text x="13" y="61" class="tf pk">category_id<tspan x="157.72" class="ty">SERIAL</tspan></text><path d="M7,14A2,2 0 0,1 5,12A2,2 0 0,1 7,10A2,2 0 0,1 9,12A2,2 0 0,1 7,14M12.65,10C11.83,7.67 9.61,6 7, 6A6, 6 0 0, 0 1, 12A6, 6 0 0, 0 7, 18C9.61, 18 11.83, 16.33 12.65, 14H17V18H21V14H23V10H12.65Z" class="i pk" transform="translate(95.034453125, 48) scale(0.65)"></path><text x="13" y="86" class="tf">name<tspan x="157.72" class="ty">TEXT</tspan></text><text x="13" y="111" class="tf">description<tspan x="157.72" class="ty">TEXT</tspan></text></svg></g></g><text class="qdbd-link" x="10" y="20">www.quickdatabasediagrams.com</text></svg>