<svg class="diagram-root" style="background: #f5f6f6" xmlns="http://www.w3.org/2000/svg" xmlns:xlink="http://www.w3.org/1999/xlink"><style>.diagram-root { font-family: "Helvetica Neue", sans-serif; font-size: 12px; } .t { overflow: visible; } .t-bg { y: 40; fill: #fff;   } .th { fill: #005aa0;   } .tht { fill: #fff; font-size: 14px;  } .tf { fill: #323c46; overflow: visible; } .tf.pk { fill: #005aa0; font-weight: bold; } .tf.fk { font-weight: bold; } .ty { fill: #adb1b5; font-weight: normal; text-anchor: end; } .r { fill: transparent; stroke: #c3c3c3; stroke-width: 1; } .l { stroke: 1; } .i { fill: #c2c7ce; stroke: #c2c7ce; } .i.ix { fill: #afb3b6; stroke: #000; } .fa { fill: transparent; overflow: visible; } .fa .bg.hover { fill: #f7f7f7; } .c { cy: 12; r: 4; stroke: #d2d2dc; fill: #d2d2dc; } .hr { fill: transparent; stroke: #323c46; stroke-opacity: 0.035; stroke-width: 13; } .dc { stroke: #fa5a3c; fill: #fa5a3c; } .x { stroke: white; stroke-width: 1; } .hl .th { fill: #1b9bff; } .hl .tht {  } .fhl .bg { fill: #e7f4ff; } .fhls .bg {  } .r.hl { stroke: #1b9bff; } .dim { opacity: 0.25; }</style><g class="drawing-wrapper" transform="translate(14, 5) scale(1,1)"><g class="rs"><path d="M 281 145 m -1, 0 a 1,1 0 1,0 2,0 a 1,1 0 1,0 -2,0 M 281 145 m -0.5, 0 a 0.5,0.5 0 1,0 1,0 a 0.5,0.5 0 1,0 -1,0  M281 145 L281 145 269 145 M 281 151 m -1, 0 a 1,1 0 1,0 2,0 a 1,1 0 1,0 -2,0 M 281 151 m -0.5, 0 a 0.5,0.5 0 1,0 1,0 a 0.5,0.5 0 1,0 -1,0  M281 151 L281 151 274 145 281 139 M 281 139 m -1, 0 a 1,1 0 1,0 2,0 a 1,1 0 1,0 -2,0 M 281 139 m -0.5, 0 a 0.5,0.5 0 1,0 1,0 a 0.5,0.5 0 1,0 -1,0  M269 145 Q 246.27 145, 223.53 114.5 T 178.05 84 M 166.05 84 m -1, 0 a 1,1 0 1,0 2,0 a 1,1 0 1,0 -2,0 M 166.05 84 m -0.5, 0 a 0.5,0.5 0 1,0 1,0 a 0.5,0.5 0 1,0 -1,0  M166.05 84 L166.05 84 178.05 84 M172.05 90 L172.05 90 172.05 78" id="h2823016531" class="r"></path><path d="M 426.37 170 m -1, 0 a 1,1 0 1,0 2,0 a 1,1 0 1,0 -2,0 M 426.37 170 m -0.5, 0 a 0.5,0.5 0 1,0 1,0 a 0.5,0.5 0 1,0 -1,0  M426.37 170 L426.37 170 438.37 170 M 426.37 176 m -1, 0 a 1,1 0 1,0 2,0 a 1,1 0 1,0 -2,0 M 426.37 176 m -0.5, 0 a 0.5,0.5 0 1,0 1,0 a 0.5,0.5 0 1,0 -1,0  M426.37 176 L426.37 176 433.37 170 426.37 164 M 426.37 164 m -1, 0 a 1,1 0 1,0 2,0 a 1,1 0 1,0 -2,0 M 426.37 164 m -0.5, 0 a 0.5,0.5 0 1,0 1,0 a 0.5,0.5 0 1,0 -1,0  M438.37 170 Q 458.28 170, 478.19 126 T 518 82 M 530 82 m -1, 0 a 1,1 0 1,0 2,0 a 1,1 0 1,0 -2,0 M 530 82 m -0.5, 0 a 0.5,0.5 0 1,0 1,0 a 0.5,0.5 0 1,0 -1,0  M530 82 L530 82 518 82 M524 88 L524 88 524 76" id="h3451059790" class="r"></path><path d="M 301 385 m -1, 0 a 1,1 0 1,0 2,0 a 1,1 0 1,0 -2,0 M 301 385 m -0.5, 0 a 0.5,0.5 0 1,0 1,0 a 0.5,0.5 0 1,0 -1,0  M301 385 L301 385 289 385 M 301 391 m -1, 0 a 1,1 0 1,0 2,0 a 1,1 0 1,0 -2,0 M 301 391 m -0.5, 0 a 0.5,0.5 0 1,0 1,0 a 0.5,0.5 0 1,0 -1,0  M301 391 L301 391 294 385 301 379 M 301 379 m -1, 0 a 1,1 0 1,0 2,0 a 1,1 0 1,0 -2,0 M 301 379 m -0.5, 0 a 0.5,0.5 0 1,0 1,0 a 0.5,0.5 0 1,0 -1,0  M289 385 C 207 385, 219 120, 269 120 M 281 120 m -1, 0 a 1,1 0 1,0 2,0 a 1,1 0 1,0 -2,0 M 281 120 m -0.5, 0 a 0.5,0.5 0 1,0 1,0 a 0.5,0.5 0 1,0 -1,0  M281 120 L281 120 269 120 M275 126 L275 126 275 114" id="h3534511435" class="r"></path><path d="M 301 410 m -1, 0 a 1,1 0 1,0 2,0 a 1,1 0 1,0 -2,0 M 301 410 m -0.5, 0 a 0.5,0.5 0 1,0 1,0 a 0.5,0.5 0 1,0 -1,0  M301 410 L301 410 289 410 M 301 416 m -1, 0 a 1,1 0 1,0 2,0 a 1,1 0 1,0 -2,0 M 301 416 m -0.5, 0 a 0.5,0.5 0 1,0 1,0 a 0.5,0.5 0 1,0 -1,0  M301 416 L301 416 294 410 301 404 M 301 404 m -1, 0 a 1,1 0 1,0 2,0 a 1,1 0 1,0 -2,0 M 301 404 m -0.5, 0 a 0.5,0.5 0 1,0 1,0 a 0.5,0.5 0 1,0 -1,0  M289 410 Q 267.27 410, 245.53 383 T 202.06 356 M 190.06 356 m -1, 0 a 1,1 0 1,0 2,0 a 1,1 0 1,0 -2,0 M 190.06 356 m -0.5, 0 a 0.5,0.5 0 1,0 1,0 a 0.5,0.5 0 1,0 -1,0  M190.06 356 L190.06 356 202.06 356 M196.06 362 L196.06 362 196.06 350" id="h2926059710" class="r"></path></g><g class="hrs"></g><g class="ts"><svg width="158.05" height="175" x="8" y="27" id="h3591197705" class="t"><rect height="40" width="158.05" class="th"></rect><text x="13" y="25" class="tht">DOCTORS</text><rect height="135" width="158.05" class="t-bg"></rect><text x="13" y="61" class="tf pk">doctor_id<tspan x="145.05" class="ty">SERIAL</tspan></text><path d="M7,14A2,2 0 0,1 5,12A2,2 0 0,1 7,10A2,2 0 0,1 9,12A2,2 0 0,1 7,14M12.65,10C11.83,7.67 9.61,6 7, 6A6, 6 0 0, 0 1, 12A6, 6 0 0, 0 7, 18C9.61, 18 11.83, 16.33 12.65, 14H17V18H21V14H23V10H12.65Z" class="i pk" transform="translate(82.36445312500001, 48) scale(0.65)"></path><text x="13" y="86" class="tf">first_name<tspan x="145.05" class="ty">TEXT</tspan></text><text x="13" y="111" class="tf">last_name<tspan x="145.05" class="ty">TEXT</tspan></text><text x="13" y="136" class="tf">specialty<tspan x="145.05" class="ty">TEXT</tspan></text><text x="13" y="161" class="tf">hospital<tspan x="145.05" class="ty">TEXT</tspan></text></svg><svg width="160.73" height="200" x="530" y="25" id="h2857114813" class="t"><rect height="40" width="160.73" class="th"></rect><text x="13" y="25" class="tht">PATIENTS</text><rect height="160" width="160.73" class="t-bg"></rect><text x="13" y="61" class="tf pk">patient_id<tspan x="147.73" class="ty">SERIAL</tspan></text><path d="M7,14A2,2 0 0,1 5,12A2,2 0 0,1 7,10A2,2 0 0,1 9,12A2,2 0 0,1 7,14M12.65,10C11.83,7.67 9.61,6 7, 6A6, 6 0 0, 0 1, 12A6, 6 0 0, 0 7, 18C9.61, 18 11.83, 16.33 12.65, 14H17V18H21V14H23V10H12.65Z" class="i pk" transform="translate(85.04445312499999, 48) scale(0.65)"></path><text x="13" y="86" class="tf">first_name<tspan x="147.73" class="ty">TEXT</tspan></text><text x="13" y="111" class="tf">last_name<tspan x="147.73" class="ty">TEXT</tspan></text><text x="13" y="136" class="tf">insurance<tspan x="147.73" class="ty">TEXT</tspan></text><text x="13" y="161" class="tf">notes<tspan x="147.73" class="ty">TEXT</tspan></text><text x="13" y="186" class="tf">birthday<tspan x="147.73" class="ty">DATE</tspan></text></svg><svg width="145.37" height="150" x="281" y="63" id="h3344018279" class="t"><rect height="40" width="145.37" class="th"></rect><text x="13" y="25" class="tht">VISITS</text><rect height="110" width="145.37" class="t-bg"></rect><text x="13" y="61" class="tf pk">visit_id<tspan x="132.37" class="ty">SERIAL</tspan></text><path d="M7,14A2,2 0 0,1 5,12A2,2 0 0,1 7,10A2,2 0 0,1 9,12A2,2 0 0,1 7,14M12.65,10C11.83,7.67 9.61,6 7, 6A6, 6 0 0, 0 1, 12A6, 6 0 0, 0 7, 18C9.61, 18 11.83, 16.33 12.65, 14H17V18H21V14H23V10H12.65Z" class="i pk" transform="translate(69.684453125, 48) scale(0.65)"></path><text x="13" y="86" class="tf fk">doctor_id</text><text x="13" y="111" class="tf fk">patient_id</text><text x="13" y="136" class="tf">visit_notes<tspan x="132.37" class="ty">TEXT</tspan></text></svg><svg width="166.06" height="150" x="24" y="299" id="h4101438065" class="t"><rect height="40" width="166.06" class="th"></rect><text x="13" y="25" class="tht">DISEASES</text><rect height="110" width="166.06" class="t-bg"></rect><text x="13" y="61" class="tf pk">disease_id<tspan x="153.06" class="ty">SERIAL</tspan></text><path d="M7,14A2,2 0 0,1 5,12A2,2 0 0,1 7,10A2,2 0 0,1 9,12A2,2 0 0,1 7,14M12.65,10C11.83,7.67 9.61,6 7, 6A6, 6 0 0, 0 1, 12A6, 6 0 0, 0 7, 18C9.61, 18 11.83, 16.33 12.65, 14H17V18H21V14H23V10H12.65Z" class="i pk" transform="translate(90.374453125, 48) scale(0.65)"></path><text x="13" y="86" class="tf">name<tspan x="153.06" class="ty">TEXT</tspan></text><text x="13" y="111" class="tf">description<tspan x="153.06" class="ty">TEXT</tspan></text><text x="13" y="136" class="tf">treatments<tspan x="153.06" class="ty">TEXT</tspan></text></svg><svg width="147.39" height="125" x="301" y="303" id="h4080331930" class="t"><rect height="40" width="147.39" class="th"></rect><text x="13" y="25" class="tht">DIAGNOSES</text><rect height="85" width="147.39" class="t-bg"></rect><text x="13" y="61" class="tf pk">diag_id<tspan x="134.39" class="ty">SERIAL</tspan></text><path d="M7,14A2,2 0 0,1 5,12A2,2 0 0,1 7,10A2,2 0 0,1 9,12A2,2 0 0,1 7,14M12.65,10C11.83,7.67 9.61,6 7, 6A6, 6 0 0, 0 1, 12A6, 6 0 0, 0 7, 18C9.61, 18 11.83, 16.33 12.65, 14H17V18H21V14H23V10H12.65Z" class="i pk" transform="translate(71.70445312499999, 48) scale(0.65)"></path><text x="13" y="86" class="tf fk">visit_id</text><text x="13" y="111" class="tf fk">disease-id</text></svg></g></g><text class="qdbd-link" x="10" y="20">www.quickdatabasediagrams.com</text></svg>