<svg class="diagram-root" style="background: #f5f6f6" xmlns="http://www.w3.org/2000/svg" xmlns:xlink="http://www.w3.org/1999/xlink"><style>.diagram-root { font-family: "Helvetica Neue", sans-serif; font-size: 12px; } .t { overflow: visible; } .t-bg { y: 40; fill: #fff;   } .th { fill: #005aa0;   } .tht { fill: #fff; font-size: 14px;  } .tf { fill: #323c46; overflow: visible; } .tf.pk { fill: #005aa0; font-weight: bold; } .tf.fk { font-weight: bold; } .ty { fill: #adb1b5; font-weight: normal; text-anchor: end; } .r { fill: transparent; stroke: #c3c3c3; stroke-width: 1; } .l { stroke: 1; } .i { fill: #c2c7ce; stroke: #c2c7ce; } .i.ix { fill: #afb3b6; stroke: #000; } .fa { fill: transparent; overflow: visible; } .fa .bg.hover { fill: #f7f7f7; } .c { cy: 12; r: 4; stroke: #d2d2dc; fill: #d2d2dc; } .hr { fill: transparent; stroke: #323c46; stroke-opacity: 0.035; stroke-width: 13; } .dc { stroke: #fa5a3c; fill: #fa5a3c; } .x { stroke: white; stroke-width: 1; } .hl .th { fill: #1b9bff; } .hl .tht {  } .fhl .bg { fill: #e7f4ff; } .fhls .bg {  } .r.hl { stroke: #1b9bff; } .dim { opacity: 0.25; }</style><g class="drawing-wrapper" transform="translate(-115.77777777777777, 27.77777777777778) scale(1,1)"><g class="rs"><path d="M 138.3333333333332 437.0000000000006 m -1, 0 a 1,1 0 1,0 2,0 a 1,1 0 1,0 -2,0 M 138.3333333333332 437.0000000000006 m -0.5, 0 a 0.5,0.5 0 1,0 1,0 a 0.5,0.5 0 1,0 -1,0  M138.3333333333332 437.0000000000006 L138.3333333333332 437.0000000000006 126.3333333333332 437.0000000000006 M 138.3333333333332 443.0000000000006 m -1, 0 a 1,1 0 1,0 2,0 a 1,1 0 1,0 -2,0 M 138.3333333333332 443.0000000000006 m -0.5, 0 a 0.5,0.5 0 1,0 1,0 a 0.5,0.5 0 1,0 -1,0  M138.3333333333332 443.0000000000006 L138.3333333333332 443.0000000000006 131.3333333333332 437.0000000000006 138.3333333333332 431.0000000000006 M 138.3333333333332 431.0000000000006 m -1, 0 a 1,1 0 1,0 2,0 a 1,1 0 1,0 -2,0 M 138.3333333333332 431.0000000000006 m -0.5, 0 a 0.5,0.5 0 1,0 1,0 a 0.5,0.5 0 1,0 -1,0  M126.3333333333332 437.0000000000006 C 75.44444444444451 437.0000000000006, 75.77777777777777 210.3333333333334, 125.77777777777777 210.3333333333334 M 137.77777777777777 210.3333333333334 m -1, 0 a 1,1 0 1,0 2,0 a 1,1 0 1,0 -2,0 M 137.77777777777777 210.3333333333334 m -0.5, 0 a 0.5,0.5 0 1,0 1,0 a 0.5,0.5 0 1,0 -1,0  M137.77777777777777 210.3333333333334 L137.77777777777777 210.3333333333334 125.77777777777777 210.3333333333334 M131.77777777777777 216.3333333333334 L131.77777777777777 216.3333333333334 131.77777777777777 204.3333333333334" id="h3085707811" class="r"></path><path d="M 142.22222222222217 84.22222222222221 m -1, 0 a 1,1 0 1,0 2,0 a 1,1 0 1,0 -2,0 M 142.22222222222217 84.22222222222221 m -0.5, 0 a 0.5,0.5 0 1,0 1,0 a 0.5,0.5 0 1,0 -1,0  M142.22222222222217 84.22222222222221 L142.22222222222217 84.22222222222221 130.22222222222217 84.22222222222221 M 142.22222222222217 90.22222222222221 m -1, 0 a 1,1 0 1,0 2,0 a 1,1 0 1,0 -2,0 M 142.22222222222217 90.22222222222221 m -0.5, 0 a 0.5,0.5 0 1,0 1,0 a 0.5,0.5 0 1,0 -1,0  M142.22222222222217 90.22222222222221 L142.22222222222217 90.22222222222221 135.22222222222217 84.22222222222221 142.22222222222217 78.22222222222221 M 142.22222222222217 78.22222222222221 m -1, 0 a 1,1 0 1,0 2,0 a 1,1 0 1,0 -2,0 M 142.22222222222217 78.22222222222221 m -0.5, 0 a 0.5,0.5 0 1,0 1,0 a 0.5,0.5 0 1,0 -1,0  M130.22222222222217 84.22222222222221 C 73.99999999999982 84.22222222222221, 76.3333333333332 387.0000000000006, 126.3333333333332 387.0000000000006 M 138.3333333333332 387.0000000000006 m -1, 0 a 1,1 0 1,0 2,0 a 1,1 0 1,0 -2,0 M 138.3333333333332 387.0000000000006 m -0.5, 0 a 0.5,0.5 0 1,0 1,0 a 0.5,0.5 0 1,0 -1,0  M138.3333333333332 387.0000000000006 L138.3333333333332 387.0000000000006 126.3333333333332 387.0000000000006 M132.3333333333332 393.0000000000006 L132.3333333333332 393.0000000000006 132.3333333333332 381.0000000000006" id="h3896192129" class="r"></path><path d="M 289.61 109.22222222222221 m -1, 0 a 1,1 0 1,0 2,0 a 1,1 0 1,0 -2,0 M 289.61 109.22222222222221 m -0.5, 0 a 0.5,0.5 0 1,0 1,0 a 0.5,0.5 0 1,0 -1,0  M289.61 109.22222222222221 L289.61 109.22222222222221 301.61 109.22222222222221 M 289.61 115.22222222222221 m -1, 0 a 1,1 0 1,0 2,0 a 1,1 0 1,0 -2,0 M 289.61 115.22222222222221 m -0.5, 0 a 0.5,0.5 0 1,0 1,0 a 0.5,0.5 0 1,0 -1,0  M289.61 115.22222222222221 L289.61 115.22222222222221 296.61 109.22222222222221 289.61 103.22222222222221 M 289.61 103.22222222222221 m -1, 0 a 1,1 0 1,0 2,0 a 1,1 0 1,0 -2,0 M 289.61 103.22222222222221 m -0.5, 0 a 0.5,0.5 0 1,0 1,0 a 0.5,0.5 0 1,0 -1,0  M301.61 109.22222222222221 Q 338.21 109.22222222222221, 374.8 95.33 T 447.9999999999998 81.44444444444444 M 459.9999999999998 81.44444444444444 m -1, 0 a 1,1 0 1,0 2,0 a 1,1 0 1,0 -2,0 M 459.9999999999998 81.44444444444444 m -0.5, 0 a 0.5,0.5 0 1,0 1,0 a 0.5,0.5 0 1,0 -1,0  M459.9999999999998 81.44444444444444 L459.9999999999998 81.44444444444444 447.9999999999998 81.44444444444444 M453.9999999999998 87.44444444444444 L453.9999999999998 87.44444444444444 453.9999999999998 75.44444444444444" id="h317130252" class="r"></path><path d="M 459.9999999999998 106.44444444444444 m -1, 0 a 1,1 0 1,0 2,0 a 1,1 0 1,0 -2,0 M 459.9999999999998 106.44444444444444 m -0.5, 0 a 0.5,0.5 0 1,0 1,0 a 0.5,0.5 0 1,0 -1,0  M459.9999999999998 106.44444444444444 L459.9999999999998 106.44444444444444 447.9999999999998 106.44444444444444 M 459.9999999999998 112.44444444444444 m -1, 0 a 1,1 0 1,0 2,0 a 1,1 0 1,0 -2,0 M 459.9999999999998 112.44444444444444 m -0.5, 0 a 0.5,0.5 0 1,0 1,0 a 0.5,0.5 0 1,0 -1,0  M459.9999999999998 112.44444444444444 L459.9999999999998 112.44444444444444 452.9999999999998 106.44444444444444 459.9999999999998 100.44444444444444 M 459.9999999999998 100.44444444444444 m -1, 0 a 1,1 0 1,0 2,0 a 1,1 0 1,0 -2,0 M 459.9999999999998 100.44444444444444 m -0.5, 0 a 0.5,0.5 0 1,0 1,0 a 0.5,0.5 0 1,0 -1,0  M447.9999999999998 106.44444444444444 Q 414.62 106.44444444444444, 381.24 158.39 T 314.49 210.3333333333334 M 302.49 210.3333333333334 m -1, 0 a 1,1 0 1,0 2,0 a 1,1 0 1,0 -2,0 M 302.49 210.3333333333334 m -0.5, 0 a 0.5,0.5 0 1,0 1,0 a 0.5,0.5 0 1,0 -1,0  M302.49 210.3333333333334 L302.49 210.3333333333334 314.49 210.3333333333334 M308.49 216.3333333333334 L308.49 216.3333333333334 308.49 204.3333333333334" id="h2534078162" class="r"></path><path d="M 459.9999999999998 131.44444444444446 m -1, 0 a 1,1 0 1,0 2,0 a 1,1 0 1,0 -2,0 M 459.9999999999998 131.44444444444446 m -0.5, 0 a 0.5,0.5 0 1,0 1,0 a 0.5,0.5 0 1,0 -1,0  M459.9999999999998 131.44444444444446 L459.9999999999998 131.44444444444446 447.9999999999998 131.44444444444446 M 459.9999999999998 137.44444444444446 m -1, 0 a 1,1 0 1,0 2,0 a 1,1 0 1,0 -2,0 M 459.9999999999998 137.44444444444446 m -0.5, 0 a 0.5,0.5 0 1,0 1,0 a 0.5,0.5 0 1,0 -1,0  M459.9999999999998 137.44444444444446 L459.9999999999998 137.44444444444446 452.9999999999998 131.44444444444446 459.9999999999998 125.44444444444446 M 459.9999999999998 125.44444444444446 m -1, 0 a 1,1 0 1,0 2,0 a 1,1 0 1,0 -2,0 M 459.9999999999998 125.44444444444446 m -0.5, 0 a 0.5,0.5 0 1,0 1,0 a 0.5,0.5 0 1,0 -1,0  M447.9999999999998 131.44444444444446 Q 414.62 131.44444444444446, 381.24 170.89 T 314.49 210.3333333333334 M 302.49 210.3333333333334 m -1, 0 a 1,1 0 1,0 2,0 a 1,1 0 1,0 -2,0 M 302.49 210.3333333333334 m -0.5, 0 a 0.5,0.5 0 1,0 1,0 a 0.5,0.5 0 1,0 -1,0  M302.49 210.3333333333334 L302.49 210.3333333333334 314.49 210.3333333333334 M308.49 216.3333333333334 L308.49 216.3333333333334 308.49 204.3333333333334" id="h2768807309" class="r"></path><path d="M 617.38 181.44444444444446 m -1, 0 a 1,1 0 1,0 2,0 a 1,1 0 1,0 -2,0 M 617.38 181.44444444444446 m -0.5, 0 a 0.5,0.5 0 1,0 1,0 a 0.5,0.5 0 1,0 -1,0  M617.38 181.44444444444446 L617.38 181.44444444444446 629.38 181.44444444444446 M 617.38 187.44444444444446 m -1, 0 a 1,1 0 1,0 2,0 a 1,1 0 1,0 -2,0 M 617.38 187.44444444444446 m -0.5, 0 a 0.5,0.5 0 1,0 1,0 a 0.5,0.5 0 1,0 -1,0  M617.38 187.44444444444446 L617.38 187.44444444444446 624.38 181.44444444444446 617.38 175.44444444444446 M 617.38 175.44444444444446 m -1, 0 a 1,1 0 1,0 2,0 a 1,1 0 1,0 -2,0 M 617.38 175.44444444444446 m -0.5, 0 a 0.5,0.5 0 1,0 1,0 a 0.5,0.5 0 1,0 -1,0  M629.38 181.44444444444446 Q 654.17 181.44444444444446, 678.97 125.89 T 728.555555555556 70.33333333333334 M 740.555555555556 70.33333333333334 m -1, 0 a 1,1 0 1,0 2,0 a 1,1 0 1,0 -2,0 M 740.555555555556 70.33333333333334 m -0.5, 0 a 0.5,0.5 0 1,0 1,0 a 0.5,0.5 0 1,0 -1,0  M740.555555555556 70.33333333333334 L740.555555555556 70.33333333333334 728.555555555556 70.33333333333334 M734.555555555556 76.33333333333334 L734.555555555556 76.33333333333334 734.555555555556 64.33333333333334" id="h455155342" class="r"></path><path d="M 617.38 256.44444444444446 m -1, 0 a 1,1 0 1,0 2,0 a 1,1 0 1,0 -2,0 M 617.38 256.44444444444446 m -0.5, 0 a 0.5,0.5 0 1,0 1,0 a 0.5,0.5 0 1,0 -1,0  M617.38 256.44444444444446 L617.38 256.44444444444446 629.38 256.44444444444446 M 617.38 262.44444444444446 m -1, 0 a 1,1 0 1,0 2,0 a 1,1 0 1,0 -2,0 M 617.38 262.44444444444446 m -0.5, 0 a 0.5,0.5 0 1,0 1,0 a 0.5,0.5 0 1,0 -1,0  M617.38 262.44444444444446 L617.38 262.44444444444446 624.38 256.44444444444446 617.38 250.44444444444446 M 617.38 250.44444444444446 m -1, 0 a 1,1 0 1,0 2,0 a 1,1 0 1,0 -2,0 M 617.38 250.44444444444446 m -0.5, 0 a 0.5,0.5 0 1,0 1,0 a 0.5,0.5 0 1,0 -1,0  M629.38 256.44444444444446 Q 656.95 256.44444444444446, 684.52 293.39 T 739.6666666666663 330.33333333333434 M 751.6666666666663 330.33333333333434 m -1, 0 a 1,1 0 1,0 2,0 a 1,1 0 1,0 -2,0 M 751.6666666666663 330.33333333333434 m -0.5, 0 a 0.5,0.5 0 1,0 1,0 a 0.5,0.5 0 1,0 -1,0  M751.6666666666663 330.33333333333434 L751.6666666666663 330.33333333333434 739.6666666666663 330.33333333333434 M745.6666666666663 336.33333333333434 L745.6666666666663 336.33333333333434 745.6666666666663 324.33333333333434" id="h785845758" class="r"></path><path d="M 617.38 281.44444444444446 m -1, 0 a 1,1 0 1,0 2,0 a 1,1 0 1,0 -2,0 M 617.38 281.44444444444446 m -0.5, 0 a 0.5,0.5 0 1,0 1,0 a 0.5,0.5 0 1,0 -1,0  M617.38 281.44444444444446 L617.38 281.44444444444446 629.38 281.44444444444446 M 617.38 287.44444444444446 m -1, 0 a 1,1 0 1,0 2,0 a 1,1 0 1,0 -2,0 M 617.38 287.44444444444446 m -0.5, 0 a 0.5,0.5 0 1,0 1,0 a 0.5,0.5 0 1,0 -1,0  M617.38 287.44444444444446 L617.38 287.44444444444446 624.38 281.44444444444446 617.38 275.44444444444446 M 617.38 275.44444444444446 m -1, 0 a 1,1 0 1,0 2,0 a 1,1 0 1,0 -2,0 M 617.38 275.44444444444446 m -0.5, 0 a 0.5,0.5 0 1,0 1,0 a 0.5,0.5 0 1,0 -1,0  M629.38 281.44444444444446 Q 656.95 281.44444444444446, 684.52 305.89 T 739.6666666666663 330.33333333333434 M 751.6666666666663 330.33333333333434 m -1, 0 a 1,1 0 1,0 2,0 a 1,1 0 1,0 -2,0 M 751.6666666666663 330.33333333333434 m -0.5, 0 a 0.5,0.5 0 1,0 1,0 a 0.5,0.5 0 1,0 -1,0  M751.6666666666663 330.33333333333434 L751.6666666666663 330.33333333333434 739.6666666666663 330.33333333333434 M745.6666666666663 336.33333333333434 L745.6666666666663 336.33333333333434 745.6666666666663 324.33333333333434" id="h4002759411" class="r"></path><path d="M 617.38 306.44444444444446 m -1, 0 a 1,1 0 1,0 2,0 a 1,1 0 1,0 -2,0 M 617.38 306.44444444444446 m -0.5, 0 a 0.5,0.5 0 1,0 1,0 a 0.5,0.5 0 1,0 -1,0  M617.38 306.44444444444446 L617.38 306.44444444444446 629.38 306.44444444444446 M 617.38 312.44444444444446 m -1, 0 a 1,1 0 1,0 2,0 a 1,1 0 1,0 -2,0 M 617.38 312.44444444444446 m -0.5, 0 a 0.5,0.5 0 1,0 1,0 a 0.5,0.5 0 1,0 -1,0  M617.38 312.44444444444446 L617.38 312.44444444444446 624.38 306.44444444444446 617.38 300.44444444444446 M 617.38 300.44444444444446 m -1, 0 a 1,1 0 1,0 2,0 a 1,1 0 1,0 -2,0 M 617.38 300.44444444444446 m -0.5, 0 a 0.5,0.5 0 1,0 1,0 a 0.5,0.5 0 1,0 -1,0  M629.38 306.44444444444446 Q 656.95 306.44444444444446, 684.52 318.39 T 739.6666666666663 330.33333333333434 M 751.6666666666663 330.33333333333434 m -1, 0 a 1,1 0 1,0 2,0 a 1,1 0 1,0 -2,0 M 751.6666666666663 330.33333333333434 m -0.5, 0 a 0.5,0.5 0 1,0 1,0 a 0.5,0.5 0 1,0 -1,0  M751.6666666666663 330.33333333333434 L751.6666666666663 330.33333333333434 739.6666666666663 330.33333333333434 M745.6666666666663 336.33333333333434 L745.6666666666663 336.33333333333434 745.6666666666663 324.33333333333434" id="h2942544826" class="r"></path><path d="M 617.38 331.44444444444446 m -1, 0 a 1,1 0 1,0 2,0 a 1,1 0 1,0 -2,0 M 617.38 331.44444444444446 m -0.5, 0 a 0.5,0.5 0 1,0 1,0 a 0.5,0.5 0 1,0 -1,0  M617.38 331.44444444444446 L617.38 331.44444444444446 629.38 331.44444444444446 M 617.38 337.44444444444446 m -1, 0 a 1,1 0 1,0 2,0 a 1,1 0 1,0 -2,0 M 617.38 337.44444444444446 m -0.5, 0 a 0.5,0.5 0 1,0 1,0 a 0.5,0.5 0 1,0 -1,0  M617.38 337.44444444444446 L617.38 337.44444444444446 624.38 331.44444444444446 617.38 325.44444444444446 M 617.38 325.44444444444446 m -1, 0 a 1,1 0 1,0 2,0 a 1,1 0 1,0 -2,0 M 617.38 325.44444444444446 m -0.5, 0 a 0.5,0.5 0 1,0 1,0 a 0.5,0.5 0 1,0 -1,0  M629.38 331.44444444444446 Q 656.95 331.44444444444446, 684.52 330.89 T 739.6666666666663 330.33333333333434 M 751.6666666666663 330.33333333333434 m -1, 0 a 1,1 0 1,0 2,0 a 1,1 0 1,0 -2,0 M 751.6666666666663 330.33333333333434 m -0.5, 0 a 0.5,0.5 0 1,0 1,0 a 0.5,0.5 0 1,0 -1,0  M751.6666666666663 330.33333333333434 L751.6666666666663 330.33333333333434 739.6666666666663 330.33333333333434 M745.6666666666663 336.33333333333434 L745.6666666666663 336.33333333333434 745.6666666666663 324.33333333333434" id="h2211151503" class="r"></path></g><g class="hrs"></g><g class="ts"><svg width="157.38" height="325" x="459.9999999999998" y="24.444444444444446" id="h1907958759" class="t"><rect height="40" width="157.38" class="th"></rect><text x="13" y="25" class="tht">MATCHES</text><rect height="285" width="157.38" class="t-bg"></rect><text x="13" y="61" class="tf pk">match_id<tspan x="144.38" class="ty">SERIAL</tspan></text><path d="M7,14A2,2 0 0,1 5,12A2,2 0 0,1 7,10A2,2 0 0,1 9,12A2,2 0 0,1 7,14M12.65,10C11.83,7.67 9.61,6 7, 6A6, 6 0 0, 0 1, 12A6, 6 0 0, 0 7, 18C9.61, 18 11.83, 16.33 12.65, 14H17V18H21V14H23V10H12.65Z" class="i pk" transform="translate(81.694453125, 48) scale(0.65)"></path><text x="13" y="86" class="tf fk">home_team</text><text x="13" y="111" class="tf fk">away_team</text><text x="13" y="136" class="tf">date<tspan x="144.38" class="ty">DATE</tspan></text><text x="13" y="161" class="tf fk">season</text><text x="13" y="186" class="tf">start_time<tspan x="144.38" class="ty">TIME</tspan></text><text x="13" y="211" class="tf">end_time<tspan x="144.38" class="ty">TIME</tspan></text><text x="13" y="236" class="tf fk">referee1</text><text x="13" y="261" class="tf fk">referee2</text><text x="13" y="286" class="tf fk">referee3</text><text x="13" y="311" class="tf fk">referee4</text></svg><svg width="147.39" height="125" x="142.22222222222217" y="2.2222222222222205" id="h2729018540" class="t"><rect height="40" width="147.39" class="th"></rect><text x="13" y="25" class="tht">GOALS</text><rect height="85" width="147.39" class="t-bg"></rect><text x="13" y="61" class="tf pk">goal_id<tspan x="134.39" class="ty">SERIAL</tspan></text><path d="M7,14A2,2 0 0,1 5,12A2,2 0 0,1 7,10A2,2 0 0,1 9,12A2,2 0 0,1 7,14M12.65,10C11.83,7.67 9.61,6 7, 6A6, 6 0 0, 0 1, 12A6, 6 0 0, 0 7, 18C9.61, 18 11.83, 16.33 12.65, 14H17V18H21V14H23V10H12.65Z" class="i pk" transform="translate(71.70445312499999, 48) scale(0.65)"></path><text x="13" y="86" class="tf fk">player-id</text><text x="13" y="111" class="tf fk">match-id</text></svg><svg width="164.71" height="150" x="137.77777777777777" y="153.3333333333334" id="h2214015131" class="t"><rect height="40" width="164.71" class="th"></rect><text x="13" y="25" class="tht">TEAM</text><rect height="110" width="164.71" class="t-bg"></rect><text x="13" y="61" class="tf pk">team_id<tspan x="151.71" class="ty">SERIAL</tspan></text><path d="M7,14A2,2 0 0,1 5,12A2,2 0 0,1 7,10A2,2 0 0,1 9,12A2,2 0 0,1 7,14M12.65,10C11.83,7.67 9.61,6 7, 6A6, 6 0 0, 0 1, 12A6, 6 0 0, 0 7, 18C9.61, 18 11.83, 16.33 12.65, 14H17V18H21V14H23V10H12.65Z" class="i pk" transform="translate(89.02445312500001, 48) scale(0.65)"></path><text x="13" y="86" class="tf">name<tspan x="151.71" class="ty">TEXT</tspan></text><text x="13" y="111" class="tf">city<tspan x="151.71" class="ty">TEXT</tspan></text><text x="13" y="136" class="tf">roster_count<tspan x="151.71" class="ty">NUMBER</tspan></text></svg><svg width="157.38" height="125" x="138.3333333333332" y="330.0000000000006" id="h3116282548" class="t"><rect height="40" width="157.38" class="th"></rect><text x="13" y="25" class="tht">PLAYERS</text><rect height="85" width="157.38" class="t-bg"></rect><text x="13" y="61" class="tf pk">player_id<tspan x="144.38" class="ty">SERIAL</tspan></text><path d="M7,14A2,2 0 0,1 5,12A2,2 0 0,1 7,10A2,2 0 0,1 9,12A2,2 0 0,1 7,14M12.65,10C11.83,7.67 9.61,6 7, 6A6, 6 0 0, 0 1, 12A6, 6 0 0, 0 7, 18C9.61, 18 11.83, 16.33 12.65, 14H17V18H21V14H23V10H12.65Z" class="i pk" transform="translate(81.694453125, 48) scale(0.65)"></path><text x="13" y="86" class="tf">name<tspan x="144.38" class="ty">TEXT</tspan></text><text x="13" y="111" class="tf fk">current_team_id</text></svg><svg width="151.38" height="125" x="740.555555555556" y="13.33333333333334" id="h161438138" class="t"><rect height="40" width="151.38" class="th"></rect><text x="13" y="25" class="tht">season</text><rect height="85" width="151.38" class="t-bg"></rect><text x="13" y="61" class="tf pk">season_id<tspan x="138.38" class="ty">TEXT</tspan></text><path d="M7,14A2,2 0 0,1 5,12A2,2 0 0,1 7,10A2,2 0 0,1 9,12A2,2 0 0,1 7,14M12.65,10C11.83,7.67 9.61,6 7, 6A6, 6 0 0, 0 1, 12A6, 6 0 0, 0 7, 18C9.61, 18 11.83, 16.33 12.65, 14H17V18H21V14H23V10H12.65Z" class="i pk" transform="translate(87.71203125, 48) scale(0.65)"></path><text x="13" y="86" class="tf">start<tspan x="138.38" class="ty">DATE</tspan></text><text x="13" y="111" class="tf">end<tspan x="138.38" class="ty">DATE</tspan></text></svg><svg width="138.7" height="125" x="751.6666666666663" y="273.33333333333434" id="h2779406633" class="t"><rect height="40" width="138.7" class="th"></rect><text x="13" y="25" class="tht">REFEREES</text><rect height="85" width="138.7" class="t-bg"></rect><text x="13" y="61" class="tf pk">ref_id<tspan x="125.69999999999999" class="ty">SERIAL</tspan></text><path d="M7,14A2,2 0 0,1 5,12A2,2 0 0,1 7,10A2,2 0 0,1 9,12A2,2 0 0,1 7,14M12.65,10C11.83,7.67 9.61,6 7, 6A6, 6 0 0, 0 1, 12A6, 6 0 0, 0 7, 18C9.61, 18 11.83, 16.33 12.65, 14H17V18H21V14H23V10H12.65Z" class="i pk" transform="translate(63.01445312499999, 48) scale(0.65)"></path><text x="13" y="86" class="tf">name<tspan x="125.69999999999999" class="ty">TEXT</tspan></text><text x="13" y="111" class="tf">location<tspan x="125.69999999999999" class="ty">TEXT</tspan></text></svg></g></g><text class="qdbd-link" x="10" y="20">www.quickdatabasediagrams.com</text></svg>